<?xml version="1.0" encoding="UTF-8" standalone="no"?>
<!DOCTYPE svg PUBLIC "-//W3C//DTD SVG 1.1//EN" "http://www.w3.org/Graphics/SVG/1.1/DTD/svg11.dtd">
<svg width="100%" height="100%" viewBox="0 0 24 24" version="1.1" xmlns="http://www.w3.org/2000/svg" xmlns:xlink="http://www.w3.org/1999/xlink" xml:space="preserve" xmlns:serif="http://www.serif.com/" style="fill-rule:evenodd;clip-rule:evenodd;stroke-linejoin:round;stroke-miterlimit:2;">
    <g transform="matrix(0.987816,0,0,1,0.267901,13.7561)">
        <path d="M3.622,3.1C4.511,3.1 5.243,3.833 5.243,4.724C5.243,5.616 4.511,6.349 3.622,6.349C2.732,6.349 2,5.616 2,4.724C2,3.833 2.732,3.1 3.622,3.1M6.865,3.65L11.877,3.65L11.877,5.806L6.865,5.807L6.865,3.65" fill-rule="nonzero" fill="#000"/>
    </g>
    <g transform="matrix(0.987816,0,0,1,0.267901,7.2756)">
        <path d="M3.622,3.1C4.511,3.1 5.243,3.833 5.243,4.724C5.243,5.616 4.511,6.349 3.622,6.349C2.732,6.349 2,5.616 2,4.724C2,3.833 2.732,3.1 3.622,3.1M6.865,3.641L16.988,3.638L16.988,5.805L6.865,5.808L6.865,3.641" fill-rule="nonzero" fill="#000"/>
    </g>
    <g transform="matrix(0.987816,0,0,1,0.267901,0.797391)">
        <path d="M3.622,3.1C4.511,3.1 5.243,3.833 5.243,4.724C5.243,5.616 4.511,6.349 3.622,6.349C2.732,6.349 2,5.616 2,4.724C2,3.833 2.732,3.1 3.622,3.1M6.865,3.641L22,3.641L22,5.808L6.865,5.808L6.865,3.641" fill-rule="nonzero" fill="#000"/>
    </g>
</svg>
